<svg width="213" height="49" viewBox="0 0 213 49" fill="none" xmlns="http://www.w3.org/2000/svg">
<path d="M0.930246 47.7017V44.6382L7.05712 43.1731V5.61268L0.930246 4.14755V1.08411H35.294V14.7364H32.2306L29.4335 5.54608L15.2485 5.01331V22.062L29.6333 20.8633V26.7904L15.2485 25.6582V43.1731L22.7073 44.6382V47.7017H0.930246ZM32.3232 47.7017V44.6382L38.5833 43.1731L54.7662 0.751133H59.5612L74.7452 43.2397L80.872 44.6382V47.7017H61.2927V44.6382L66.2208 43.5061L63.0242 34.5156H46.708L43.245 43.3063L49.1055 44.6382V47.7017H32.3232ZM48.1732 30.5864H61.5591L55.0326 12.4055L48.1732 30.5864ZM84.7877 11.7396C84.7877 8.05455 86.2528 5.1909 89.1831 3.14861C92.1133 1.10631 95.9093 0.0851683 100.571 0.0851683C105.544 0.0851683 110.094 0.595741 114.223 1.61689L113.89 14.4034H110.894L107.564 4.81352C105.699 4.45834 103.812 4.28075 101.903 4.28075C98.8396 4.28075 96.4199 4.88012 94.644 6.07885C92.9125 7.27759 92.0467 8.9425 92.0467 11.0736C92.0467 12.8939 92.8237 14.4256 94.3776 15.6687C95.9759 16.8675 98.7286 18.2882 102.636 19.9309C104.722 20.7745 106.432 21.5736 107.764 22.3284C109.14 23.0388 110.605 23.9933 112.159 25.192C113.713 26.3908 114.867 27.8337 115.622 29.5208C116.421 31.2079 116.821 33.0948 116.821 35.1815C116.821 39.6213 115.178 43.0399 111.892 45.4374C108.829 47.6573 104.989 48.745 100.371 48.7006C99.1282 48.7006 97.0637 48.5896 94.1778 48.3676C91.3364 48.1456 88.2507 47.5463 84.9209 46.5695V33.45H87.9843L91.3808 43.4395C93.2455 44.0167 95.421 44.3052 97.9072 44.3052C101.37 44.3052 104.167 43.7059 106.298 42.5071C108.429 41.264 109.495 39.3327 109.495 36.7132C109.495 34.7153 108.54 32.9838 106.631 31.5187C104.722 30.0536 101.925 28.5219 98.2402 26.9236C93.1789 24.7481 89.6715 22.6392 87.718 20.5969C85.7645 18.5546 84.7877 15.6022 84.7877 11.7396ZM147.446 0.0851683C152.596 0.0851683 156.925 0.862128 160.432 2.41605V15.0028H157.369L154.306 5.1465C152.574 4.74692 150.576 4.54714 148.312 4.54714C137.257 4.54714 131.729 11.1624 131.729 24.3929C131.729 37.6234 136.813 44.2386 146.98 44.2386C148.49 44.2386 149.844 44.1942 151.042 44.1054C152.241 44.0167 153.329 43.8835 154.306 43.7059L158.168 33.1836H161.232L160.765 45.7704C160.144 46.1255 159.256 46.4807 158.102 46.8359C156.947 47.1911 155.682 47.5019 154.306 47.7683C152.974 48.0346 151.575 48.2566 150.11 48.4342C148.689 48.6118 147.38 48.7006 146.181 48.7006C138.678 48.7006 132.995 46.6139 129.132 42.4405C125.27 38.2672 123.338 32.2513 123.338 24.3929C123.338 16.5345 125.336 10.5186 129.332 6.34524C133.372 2.17186 139.41 0.0851683 147.446 0.0851683ZM190.328 0.0851683C193.924 0.0851683 197.098 0.684537 199.851 1.88327C202.603 3.08201 204.934 4.74692 206.843 6.87801C208.753 9.0091 210.195 11.562 211.172 14.5366C212.149 17.5113 212.637 20.7745 212.637 24.3263C212.637 27.9225 212.149 31.2079 211.172 34.1826C210.24 37.1572 208.819 39.7323 206.91 41.9078C205.045 44.0389 202.714 45.7038 199.917 46.9025C197.165 48.1012 193.968 48.7006 190.328 48.7006C186.465 48.7006 183.113 48.0568 180.271 46.7693C177.474 45.4818 175.166 43.7503 173.345 41.5748C171.525 39.3549 170.171 36.7576 169.283 33.783C168.439 30.8083 168.018 27.6117 168.018 24.1931C168.018 20.8633 168.462 17.7554 169.35 14.8696C170.238 11.9393 171.592 9.38648 173.412 7.21099C175.232 4.99111 177.541 3.2596 180.338 2.01647C183.18 0.728934 186.509 0.0851683 190.328 0.0851683ZM190.328 4.01436C185.799 4.01436 182.358 5.92346 180.005 9.74166C177.696 13.5155 176.542 18.3992 176.542 24.3929C176.542 30.7418 177.763 35.7365 180.205 39.3771C182.691 42.9733 186.065 44.7714 190.328 44.7714C194.59 44.7714 197.942 42.9733 200.384 39.3771C202.87 35.7365 204.113 30.7418 204.113 24.3929C204.113 18.3992 202.936 13.5155 200.583 9.74166C198.275 5.92346 194.856 4.01436 190.328 4.01436Z" fill="#484848"/>
</svg>
